# xmcd
#
# Track frame offsets:
#	150
#	12024
#	44189
#	70372
#	100458
#	139260
#	165242
#	177529
#	199361
#	226050
#
# Disc length: 3491 seconds
#
# Revision: 1
# Processed by: cddbd v1.5.2PL0 Copyright (c) Steve Scherf et al.
# Submitted via: audiograbber 1.83.01
#
DISCID=8d0da10a
DTITLE=Buddy Guy and Stevie Ray Vaughan - Love at Lone Star Cafe 1986 disc 1
DYEAR=1986
DGENRE=Blues
TTITLE0=You Don't Have To Go
TTITLE1=I'll Play The Blues For You
TTITLE2=Yonder's Wall
TTITLE3=Fore Long Years
TTITLE4=All Your Love
TTITLE5=Blue Monday
TTITLE6=Crazy About You
TTITLE7=I Just Want To Make Love To You
TTITLE8=Stormy Monday
TTITLE9=Still Called The Blues
EXTD=
EXTT0=
EXTT1=
EXTT2=
EXTT3=
EXTT4=
EXTT5=
EXTT6=
EXTT7=
EXTT8=
EXTT9=
PLAYORDER=
